# xmcd CD database file
#
# Track frame offsets:
#	150
#	19852
#	36531
#	52726
#	71409
#	93403
#	107725
#	126657
#	146320
#	163673
#	181916
#	199067
#
# Disc length: 2865 seconds
#
# Revision: 9
# Processed by: cddbd v1.5.1PL0 Copyright (c) Steve Scherf et al.
# Submitted via: CDex 1.51
#
DISCID=a60b2f0c
DTITLE=Zezé Di Camargo and Luciano - Sadade Bandida
DYEAR=1993
DGENRE=Country
TTITLE0=Saudade Bandida
TTITLE1=Fazer Amor
TTITLE2=Andorinha Machucada
TTITLE3=Quatro Estações
TTITLE4=Tudo de Novo
TTITLE5=Vá Embora
TTITLE6=Faz Mais Uma Vez Comigo
TTITLE7=Melhor Que Antes
TTITLE8=Eu Só Penso Em Voçê - Always On My Mind
TTITLE9=Olhos De Lua
TTITLE10=Mais Do Que Ru
TTITLE11=Pedaço De Mim
EXTD=YEAR: 1993
EXTT0=
EXTT1=
EXTT2=
EXTT3=
EXTT4=
EXTT5=
EXTT6=
EXTT7=
EXTT8=
EXTT9=
EXTT10=
EXTT11=
PLAYORDER=
